#!OML:ASF F:\VICON\USERDATA\INSTALL\rory3\rory3.ASF
:FULLY-SPECIFIED
:DEGREES
4440
root -4.90752 14.5153 -12.4895 -548.555 -51.838 548.928
lowerback 20.4747 6.35797 -3.96044
upperback -0.672904 7.4759 0.704955
thorax -12.8631 3.70338 0.678631
lowerneck -10.8259 -7.8783 -2.55439
upperneck 15.0583 -12.513 10.3473
head 7.23967 -5.47248 2.49391
rclavicle 3.3197e-014 1.59028e-014
rhumerus 9.45465 69.9068 -85.6047
rradius 53.761
rwrist -81.59
rhand -7.5015 2.39853
rfingers 7.12502
rthumb 18.3884 -26.7523
lclavicle 3.3197e-014 1.59028e-014
lhumerus 26.234 -34.9489 38.8097
lradius 123.886
lwrist 5.59669
lhand 1.68423 15.7364
lfingers 7.12502
lthumb 27.2026 43.7953
rfemur -7.15102 5.17902 -4.69081
rtibia 19.0703
rfoot -26.8462 -31.6019
rtoes 26.8238
lfemur -38.2167 24.9985 -17.9807
ltibia 73.2644
lfoot -31.121 2.49555
ltoes 16.4356
4441
root -4.88412 14.5161 -12.5115 -548.549 -51.7902 549.005
lowerback 20.503 6.38558 -3.90914
upperback -0.681341 7.51559 0.647547
thorax -12.8758 3.71522 0.570549
lowerneck -10.8768 -7.94368 -2.64866
upperneck 15.067 -12.6425 10.5896
head 7.28421 -5.52028 2.56821
rclavicle 5.36719e-015 -1.59028e-015
rhumerus 10.4175 70.026 -84.7003
rradius 53.8892
rwrist -81.8711
rhand -7.50172 2.36091
rfingers 7.12502
rthumb 18.3882 -26.79
lclavicle 5.36719e-015 -1.59028e-015
lhumerus 26.2446 -34.883 38.9969
lradius 124.027
lwrist 5.35559
lhand 1.73635 15.8391
lfingers 7.12502
lthumb 27.2524 43.8901
rfemur -7.53789 4.60958 -4.56322
rtibia 19.4747
rfoot -25.7152 -31.7469
rtoes 25.3005
lfemur -38.377 25.1703 -17.8002
ltibia 73.2902
lfoot -30.9169 2.58236
ltoes 15.0411
4442
root -4.85593 14.515 -12.5298 -549.107 -51.6929 549.682
lowerback 20.4857 6.35522 -3.64007
upperback -0.557546 7.56201 0.843794
thorax -12.7178 3.72567 0.635004
lowerneck -11.0344 -7.91854 -2.7279
upperneck 15.0169 -12.5816 10.6015
head 7.29714 -5.48754 2.58577
rclavicle 9.14409e-014 9.54166e-015
rhumerus 11.8303 70.3745 -83.2397
rradius 54.052
rwrist -82.2449
rhand -7.57208 2.12842
rfingers 7.12502
rthumb 18.3205 -27.0288
lclavicle 9.14409e-014 9.54166e-015
lhumerus 26.1415 -34.5613 39.2813
lradius 124.032
lwrist 5.1899
lhand 1.6121 15.6004
lfingers 7.12502
lthumb 27.1336 43.67
rfemur -7.84489 4.13159 -4.02066
rtibia 19.8535
rfoot -25.0218 -31.7132
rtoes 23.9829
lfemur -38.5563 25.3828 -17.1579
ltibia 73.4231
lfoot -30.4297 3.07624
ltoes 15.5019
4443
root -4.83983 14.511 -12.5521 -548.977 -51.8762 549.379
lowerback 20.2101 6.38711 -4.01752
upperback -0.288229 7.52547 0.93308
thorax -12.3145 3.73341 0.997851
lowerneck -11.1512 -7.94299 -2.87438
upperneck 14.8679 -12.5681 10.6497
head 7.2808 -5.48238 2.62264
rclavicle 7.05686e-014 4.77083e-015
rhumerus 13.4374 70.624 -81.4751
rradius 54.2201
rwrist -82.6399
rhand -7.97022 2.42901
rfingers 7.12502
rthumb 17.9375 -26.7638
lclavicle 7.05686e-014 4.77083e-015
lhumerus 26.1318 -34.3013 39.5326
lradius 124.026
lwrist 5.09516
lhand 1.49975 15.6273
lfingers 7.12502
lthumb 27.0261 43.7136
rfemur -7.87484 3.34457 -4.30975
rtibia 20.1822
rfoot -24.3439 -31.3513
rtoes 23.3955
lfemur -38.4258 25.2717 -17.2554
ltibia 73.4218
lfoot -30.3552 3.30741
ltoes 15.5411
4444
root -4.82329 14.5083 -12.5676 -548.608 -52.0671 548.943
lowerback 20.0731 6.40553 -4.24994
upperback -0.219038 7.48538 0.830476
thorax -12.1714 3.72434 1.04337
lowerneck -11.0209 -7.96073 -2.62998
upperneck 14.6735 -12.5811 10.5165
head 7.17124 -5.49778 2.54804
rclavicle 1.51076e-014 -1.59028e-015
rhumerus 14.3265 70.6927 -80.5226
rradius 54.3993
rwrist -82.9518
rhand -8.55387 3.3504
rfingers 7.12502
rthumb 17.3758 -25.8929
lclavicle 1.51076e-014 -1.59028e-015
lhumerus 26.2114 -34.2836 39.7244
lradius 124.054
lwrist 4.92403
lhand 1.43713 15.6976
lfingers 7.12502
lthumb 26.9662 43.7932
rfemur -8.03024 2.59686 -4.67787
rtibia 20.4906
rfoot -23.3162 -31.2169
rtoes 22.1974
lfemur -38.4536 25.1458 -17.4875
ltibia 73.4418
lfoot -30.5115 2.82841
ltoes 15.9177
4445
root -4.79343 14.5093 -12.5781 -548.541 -52.0142 549.041
lowerback 20.3688 6.4315 -3.95906
upperback -0.44002 7.55623 0.6293
thorax -12.5273 3.73221 0.594994
lowerneck -10.9135 -7.99175 -2.47615
upperneck 14.7655 -12.6992 10.6307
head 7.18974 -5.54295 2.54959
rclavicle 4.11484e-014 2.38542e-015
rhumerus 14.17 70.5022 -80.8736
rradius 54.4391
rwrist -83.0746
rhand -8.28365 3.38168
rfingers 7.12502
rthumb 17.6359 -25.8385
lclavicle 4.11484e-014 2.38542e-015
lhumerus 26.3086 -34.5652 39.4007
lradius 124.23
lwrist 4.84521
lhand 1.00758 15.5322
lfingers 7.12502
lthumb 26.5551 43.6907
rfemur -8.4506 2.32994 -4.55291
rtibia 20.7791
rfoot -22.9458 -31.0808
rtoes 22.3829
lfemur -38.7842 25.3271 -17.3393
ltibia 73.5354
lfoot -30.2742 2.81906
ltoes 15.9792
4446
root -4.75916 14.5095 -12.6066 -549.194 -51.839 549.769
lowerback 20.638 6.51044 -3.67403
upperback -0.506873 7.73521 0.749948
thorax -12.7464 3.79904 0.481623
lowerneck -10.9093 -8.02107 -2.80349
upperneck 14.9409 -12.7819 10.9635
head 7.2965 -5.5701 2.6947
rclavicle 6.61953e-014 2.38542e-015
rhumerus 13.9888 70.4169 -81.1565
rradius 54.391
rwrist -83.0427
rhand -7.24241 2.76405
rfingers 7.12502
rthumb 18.6377 -26.3631
lclavicle 6.61953e-014 2.38542e-015
lhumerus 26.2608 -34.6681 39.3368
lradius 124.368
lwrist 4.74644
lhand 0.726445 15.3473
lfingers 7.12502
lthumb 26.286 43.5462
rfemur -8.65298 2.28892 -3.89018
rtibia 21.0365
rfoot -22.9939 -30.9247
rtoes 22.9546
lfemur -38.8996 25.7269 -16.561
ltibia 73.7194
lfoot -30.0187 2.75768
ltoes 14.5354
4447
root -4.73108 14.5067 -12.6385 -549.911 -51.7293 550.468
lowerback 20.594 6.54729 -3.62271
upperback -0.362004 7.82888 1.03395
thorax -12.5967 3.8487 0.750865
lowerneck -10.8878 -8.02785 -3.08443
upperneck 14.9292 -12.7622 11.0887
head 7.31376 -5.56567 2.78186
rclavicle 1.63997e-014 -4.77083e-015
rhumerus 14.7204 70.6633 -80.3954
rradius 54.4655
rwrist -83.2488
rhand -6.73622 2.50539
rfingers 7.12502
rthumb 19.1245 -26.5743
lclavicle 1.63997e-014 -4.77083e-015
lhumerus 26.1277 -34.4563 39.99
lradius 124.335
lwrist 4.54827
lhand 0.882117 15.4507
lfingers 7.12502
lthumb 26.435 43.6273
rfemur -8.70521 1.84214 -3.28306
rtibia 21.2887
rfoot -22.6869 -30.57
rtoes 23.0925
lfemur -38.8541 25.9584 -15.7475
ltibia 73.8884
lfoot -29.9673 1.9972
ltoes 14.9496
4448
root -4.71337 14.5053 -12.6518 -549.686 -51.8199 550.238
lowerback 20.5245 6.52963 -3.58573
upperback -0.308479 7.79578 0.894513
thorax -12.4665 3.82505 0.598547
lowerneck -10.877 -8.09158 -3.06075
upperneck 14.8599 -12.8619 11.1662
head 7.30144 -5.60969 2.79209
rclavicle 7.2457e-014 7.95139e-016
rhumerus 16.1555 70.6774 -78.953
rradius 54.6985
rwrist -83.8923
rhand -6.56559 2.20874
rfingers 7.12502
rthumb 19.2886 -26.8547
lclavicle 7.2457e-014 7.95139e-016
lhumerus 26.383 -34.3018 40.4163
lradius 124.223
lwrist 4.32035
lhand 1.21543 15.6213
lfingers 7.12502
lthumb 26.754 43.7496
rfemur -8.92019 0.997717 -3.47517
rtibia 21.5613
rfoot -21.9206 -30.143
rtoes 22.9614
lfemur -38.9564 25.9449 -15.8413
ltibia 73.9294
lfoot -29.9107 1.73561
ltoes 15.4156
4449
root -4.69711 14.5049 -12.6648 -549.203 -51.9945 549.693
lowerback 20.5908 6.54797 -3.60403
upperback -0.280899 7.78302 0.692503
thorax -12.4427 3.80976 0.385616
lowerneck -10.9116 -8.15538 -2.95155
upperneck 14.7502 -12.9224 11.0443
head 7.2608 -5.64285 2.72904
rclavicle -1.98785e-014 7.15625e-015
rhumerus 17.3837 70.5334 -77.6169
rradius 54.8632
rwrist -84.415
rhand -6.32759 1.94497
rfingers 7.12502
rthumb 19.5174 -27.0954
lclavicle -1.98785e-014 7.15625e-015
lhumerus 26.5639 -34.2396 40.6732
lradius 124.27
lwrist 4.14751
lhand 1.20545 15.5419
lfingers 7.12502
lthumb 26.7445 43.6716
rfemur -9.14912 0.0617098 -3.90252
rtibia 21.9018
rfoot -20.7194 -29.9282
rtoes 22.0808
lfemur -38.9996 25.8587 -16.2182
ltibia 73.8583
lfoot -29.8811 1.93526
ltoes 14.6109
